<svg xmlns="http://www.w3.org/2000/svg" viewBox="0 0 32 32">
  <rect width="32" height="32" rx="7" fill="#0c0b0a"/>
  <circle cx="16" cy="16" r="9" fill="none" stroke="#e87820" stroke-width="1.6"/>
  <rect x="14.2" y="5.5" width="3.6" height="4.5" rx="1" fill="#e87820"/>
  <rect x="14.2" y="22" width="3.6" height="4.5" rx="1" fill="#e87820"/>
  <rect x="5.5" y="14.2" width="4.5" height="3.6" rx="1" fill="#e87820"/>
  <rect x="22" y="14.2" width="4.5" height="3.6" rx="1" fill="#e87820"/>
  <rect x="8.5" y="7.2" width="3.6" height="4.5" rx="1" fill="#e87820" transform="rotate(-45 10.3 9.45)"/>
  <rect x="19.9" y="7.2" width="3.6" height="4.5" rx="1" fill="#e87820" transform="rotate(45 21.7 9.45)"/>
  <rect x="8.5" y="20.3" width="3.6" height="4.5" rx="1" fill="#e87820" transform="rotate(45 10.3 22.55)"/>
  <rect x="19.9" y="20.3" width="3.6" height="4.5" rx="1" fill="#e87820" transform="rotate(-45 21.7 22.55)"/>
  <circle cx="16" cy="16" r="6" fill="#0c0b0a" stroke="#e87820" stroke-width="1"/>
  <text x="16" y="19.5" text-anchor="middle"
    font-family="ui-monospace,monospace"
    font-size="7" font-weight="700" fill="#e87820" letter-spacing="-0.3">SZ</text>
</svg>
